<?xml version="1.0" standalone="no"?>
<!DOCTYPE svg PUBLIC "-//W3C//DTD SVG 20010904//EN"
 "http://www.w3.org/TR/2001/REC-SVG-20010904/DTD/svg10.dtd">
<svg version="1.0" xmlns="http://www.w3.org/2000/svg"
 width="835.000000pt" height="436.000000pt" viewBox="0 0 835.000000 436.000000"
 preserveAspectRatio="xMidYMid meet">
<metadata>
Created by potrace 1.15, written by Peter Selinger 2001-2017
</metadata>
<g transform="translate(0.000000,436.000000) scale(0.100000,-0.100000)"
fill="#000000" stroke="none">
<path d="M3580 4331 c0 -5 -12 -12 -26 -15 -15 -4 -32 -13 -40 -20 -7 -8 -16
-25 -20 -40 -3 -14 -10 -26 -15 -26 -5 0 -9 -13 -9 -30 0 -16 4 -30 9 -30 5 0
12 -11 15 -25 7 -29 81 -105 102 -105 8 0 14 -4 14 -10 0 -5 16 -12 35 -16 19
-3 35 -10 35 -15 0 -5 11 -9 25 -9 14 0 25 5 25 10 0 6 -3 10 -7 10 -5 0 -19
9 -33 20 l-25 20 33 -11 c17 -6 35 -15 38 -20 3 -5 14 -9 25 -9 10 0 19 -4 19
-10 0 -5 23 -12 50 -16 28 -4 50 -11 50 -16 0 -14 63 -5 67 9 3 8 -11 15 -36
19 -23 4 -41 10 -41 15 0 4 -16 11 -35 15 -19 3 -35 10 -35 15 0 5 -6 9 -13 9
-27 0 -57 40 -57 76 0 36 0 36 -42 33 -58 -3 -88 0 -88 9 0 4 12 8 27 9 15 0
29 6 31 12 2 6 10 11 17 11 17 0 25 23 25 72 0 31 -4 41 -20 45 -11 3 -20 9
-20 14 0 5 -18 9 -40 9 -22 0 -40 -4 -40 -9z"/>
<path d="M890 4224 c-14 -3 -32 -8 -40 -11 -8 -3 -25 -5 -37 -4 -13 1 -23 -2
-23 -7 0 -5 -16 -13 -35 -16 -19 -4 -35 -11 -35 -16 0 -4 -13 -11 -30 -15 -16
-4 -30 -10 -30 -15 0 -5 -13 -11 -29 -15 -16 -3 -32 -13 -35 -21 -3 -8 -12
-14 -20 -14 -7 0 -16 -7 -20 -15 -3 -8 -12 -15 -20 -15 -13 0 -35 -20 -140
-130 -21 -22 -42 -40 -46 -40 -5 0 -12 -10 -15 -22 -4 -11 -18 -31 -31 -43
-13 -12 -21 -24 -19 -27 3 -3 -1 -11 -10 -18 -8 -7 -15 -18 -15 -25 0 -7 -7
-15 -15 -19 -8 -3 -15 -12 -15 -21 0 -8 -4 -15 -10 -15 -5 0 -12 -11 -16 -25
-3 -14 -10 -25 -15 -25 -5 0 -9 -6 -9 -14 0 -8 -7 -22 -16 -30 -8 -9 -12 -20
-9 -26 3 -5 2 -10 -4 -10 -6 0 -13 -16 -17 -35 -3 -19 -10 -35 -14 -35 -5 0
-11 -18 -15 -40 -4 -22 -11 -40 -16 -40 -4 0 -11 -22 -15 -50 -4 -27 -10 -50
-14 -50 -5 0 -11 -28 -15 -62 -4 -35 -12 -66 -19 -70 -15 -10 -15 -626 0 -636
7 -4 14 -73 19 -172 4 -91 10 -167 15 -170 4 -3 11 -35 14 -72 4 -38 11 -68
16 -68 4 0 10 -22 14 -50 4 -27 10 -50 14 -50 4 0 14 -27 21 -60 8 -33 17 -60
21 -60 5 0 11 -14 15 -30 4 -17 11 -30 16 -30 5 0 9 -7 9 -15 0 -9 6 -18 14
-21 8 -3 17 -17 21 -31 3 -13 17 -35 30 -47 14 -13 22 -25 20 -28 -3 -3 15
-25 40 -49 25 -24 67 -65 94 -91 27 -27 53 -48 59 -48 5 0 12 -7 16 -15 3 -8
12 -15 21 -15 8 0 15 -4 15 -9 0 -5 16 -15 35 -21 19 -6 35 -15 35 -20 0 -5
13 -11 30 -15 16 -4 30 -11 30 -15 0 -5 16 -12 35 -16 19 -3 35 -10 35 -14 0
-4 21 -11 48 -15 26 -4 50 -12 54 -18 5 -8 70 -12 220 -11 288 1 298 2 298 13
0 5 27 12 60 16 33 4 60 11 60 15 0 5 18 11 40 15 22 4 40 11 40 15 0 5 14 11
30 15 17 4 30 10 30 15 0 5 14 11 30 15 17 4 30 11 30 15 0 5 7 7 15 4 8 -4
15 -1 15 5 0 6 7 11 15 11 9 0 18 7 21 15 4 8 12 15 19 15 8 0 27 14 43 30 17
17 34 30 38 30 10 0 114 107 114 117 0 5 12 20 28 33 15 14 33 37 41 53 8 15
18 27 23 27 4 0 8 7 8 15 0 9 6 18 14 21 8 3 18 18 21 34 3 16 13 31 21 34 8
3 14 12 14 21 0 8 4 15 9 15 4 0 14 20 21 45 7 25 16 45 21 45 4 0 11 16 15
35 3 19 10 35 15 35 4 0 11 16 15 35 3 19 10 35 14 35 5 0 11 18 15 40 4 22
11 40 16 40 5 0 12 18 15 40 4 22 11 40 16 40 5 0 6 9 3 20 -3 11 -2 20 3 20
6 0 13 23 17 50 4 28 11 50 15 50 5 0 12 36 16 80 3 44 10 80 14 80 4 0 11 28
14 62 5 42 10 57 16 48 5 -8 12 -11 17 -7 4 4 2 17 -5 27 -14 23 -16 50 -3 50
10 0 31 -54 31 -81 0 -11 5 -19 10 -19 6 0 9 -3 8 -7 -1 -5 4 -21 10 -36 7
-16 12 -33 12 -38 0 -5 5 -9 10 -9 6 0 10 -7 10 -15 0 -9 7 -18 15 -21 8 -4
15 -13 15 -20 0 -8 7 -17 15 -20 8 -3 17 -15 21 -26 8 -26 121 -138 139 -138
7 0 15 -7 19 -15 3 -8 12 -15 21 -15 8 0 15 -4 15 -10 0 -5 5 -10 10 -10 19 0
10 27 -16 46 -42 30 -169 157 -177 177 -3 9 -11 17 -17 17 -5 0 -10 6 -10 14
0 8 -6 21 -14 28 -7 8 -17 24 -20 36 -4 12 -11 22 -16 22 -5 0 -11 14 -15 30
-4 17 -11 30 -15 30 -5 0 -12 16 -16 35 -3 19 -10 35 -14 35 -5 0 -6 9 -3 20
3 11 0 20 -6 20 -19 0 -12 18 10 25 19 6 21 12 15 51 -3 24 -2 46 3 48 5 3 12
-23 16 -59 3 -36 10 -65 15 -65 4 0 10 -22 14 -50 4 -27 11 -50 15 -50 5 0 12
-19 16 -42 4 -23 12 -48 19 -55 24 -27 32 -39 39 -55 3 -10 11 -18 17 -18 6 0
8 -5 5 -10 -7 -11 47 -70 64 -70 5 0 14 -7 19 -16 5 -9 14 -14 21 -10 13 9 15
36 2 36 -5 0 -12 14 -16 30 -4 17 -10 30 -15 30 -5 0 -11 13 -15 29 -3 16 -13
32 -21 35 -8 3 -14 12 -14 21 0 8 -4 15 -9 15 -5 0 -12 14 -16 30 -4 17 -11
30 -16 30 -6 0 -7 5 -3 11 3 6 1 15 -6 19 -16 10 -27 150 -12 150 6 0 14 -9
17 -20 3 -11 10 -20 15 -20 5 0 7 -13 4 -30 -5 -23 -3 -30 10 -30 11 0 16 9
16 30 0 17 -4 30 -10 30 -6 0 -10 49 -10 128 0 112 2 124 14 101 7 -14 11 -40
8 -57 -2 -20 0 -32 7 -32 6 0 11 -13 11 -30 0 -16 5 -30 10 -30 13 0 13 26 0
50 -7 12 -7 28 0 44 14 38 26 31 22 -13 -2 -21 1 -42 6 -45 6 -4 8 -22 5 -41
-4 -22 -2 -35 5 -35 6 0 14 -22 18 -50 4 -27 11 -50 16 -50 5 0 6 -9 3 -20 -4
-11 -2 -20 4 -20 5 0 13 -16 17 -35 3 -19 10 -35 15 -35 4 0 11 -16 15 -35 3
-19 10 -35 14 -35 5 0 12 -10 16 -22 3 -12 13 -28 20 -36 8 -7 14 -20 14 -28
0 -8 5 -14 11 -14 5 0 15 -13 20 -30 6 -16 14 -30 18 -30 5 0 24 -16 44 -35
40 -39 47 -42 47 -20 0 8 -9 19 -20 25 -11 6 -20 16 -20 22 0 6 -11 21 -24 33
-13 12 -27 32 -31 43 -3 12 -11 22 -16 22 -6 0 -7 5 -4 10 3 6 2 10 -4 10 -6
0 -13 11 -17 25 -3 14 -10 25 -14 25 -4 0 -11 11 -14 25 -4 14 -11 25 -16 25
-5 0 -12 16 -16 35 -3 19 -10 35 -14 35 -5 0 -11 18 -15 40 -4 22 -10 40 -15
40 -4 0 -11 23 -15 50 -4 28 -11 50 -16 50 -5 0 -6 12 -3 26 4 14 2 29 -3 33
-12 8 -31 151 -21 151 5 0 11 -7 14 -15 4 -8 11 -15 17 -15 7 0 8 63 5 198 -5
147 -3 207 7 237 7 22 13 33 14 25 0 -8 2 -151 4 -318 2 -206 6 -305 14 -310
6 -4 14 -35 18 -69 4 -35 11 -63 15 -63 5 0 12 -20 16 -45 3 -25 10 -45 14
-45 5 0 11 -13 15 -29 3 -16 13 -32 21 -35 8 -3 14 -11 14 -18 0 -12 22 -35
62 -66 16 -12 16 -10 11 25 -3 21 -9 40 -14 43 -4 3 -10 22 -14 43 -4 20 -11
37 -15 37 -5 0 -11 18 -15 40 -4 22 -11 40 -17 40 -5 0 -6 9 -3 20 3 11 2 20
-4 20 -5 0 -13 29 -16 65 -4 36 -11 65 -16 65 -5 0 -9 38 -9 85 0 47 3 85 8
85 28 -1 37 -23 40 -100 2 -44 8 -80 14 -80 5 0 7 -13 3 -30 -6 -27 10 -60 28
-60 9 0 -6 85 -14 88 -12 5 -12 272 0 272 5 0 12 47 16 105 4 58 11 105 16
105 5 0 9 65 9 145 0 90 -4 145 -10 145 -5 0 -10 11 -10 25 0 18 7 26 24 31
14 3 27 12 30 20 3 8 10 14 16 14 5 0 19 9 30 20 11 11 27 20 35 20 8 0 15 4
15 9 0 5 11 12 25 15 14 4 25 11 25 16 0 5 16 12 35 16 19 3 35 10 35 14 0 4
19 10 42 14 23 4 45 11 48 16 3 6 41 13 83 16 42 4 77 11 77 16 0 5 32 8 73 6
l72 -3 3 31 c3 35 -32 80 -72 90 -14 3 -26 10 -26 15 0 5 -11 7 -25 3 -14 -3
-25 -2 -25 4 0 6 -22 13 -50 17 -27 4 -50 11 -50 15 0 4 -28 11 -62 15 -35 4
-66 11 -69 16 -3 5 -60 12 -127 16 -67 3 -122 10 -122 15 0 4 -38 8 -85 8 -47
0 -85 -4 -85 -8 0 -5 -55 -12 -122 -15 -67 -4 -124 -11 -127 -16 -3 -5 -32
-12 -63 -16 -32 -4 -58 -11 -58 -16 0 -4 -20 -11 -45 -15 -25 -3 -45 -11 -45
-16 0 -5 -9 -6 -20 -3 -11 3 -20 2 -20 -4 0 -5 -13 -12 -30 -16 -16 -4 -30
-10 -30 -15 0 -5 -13 -11 -30 -15 -16 -4 -30 -10 -30 -15 0 -5 -10 -12 -22
-16 -12 -3 -28 -13 -36 -20 -7 -8 -20 -14 -28 -14 -8 0 -14 -5 -14 -10 0 -6
-11 -15 -25 -20 -14 -5 -25 -14 -25 -19 0 -5 -9 -13 -20 -16 -22 -7 -160 -140
-160 -154 0 -5 -13 -22 -28 -38 -16 -15 -31 -36 -35 -45 -3 -10 -11 -18 -16
-18 -5 0 -12 -13 -16 -29 -3 -16 -12 -32 -20 -34 -7 -3 -16 -19 -20 -36 -4
-17 -10 -31 -15 -31 -4 0 -11 -16 -14 -35 -4 -19 -11 -35 -15 -35 -5 0 -12
-20 -15 -45 -6 -36 -11 -45 -27 -45 -10 0 -19 5 -19 11 0 5 -13 15 -29 20 -16
6 -32 17 -35 25 -3 8 -12 14 -21 14 -8 0 -15 5 -15 10 0 6 -7 10 -15 10 -9 0
-18 6 -21 14 -3 8 -19 18 -35 21 -16 4 -29 10 -29 14 0 5 -28 14 -62 21 -35 7
-66 18 -70 24 -10 15 -416 15 -426 1 -4 -6 -36 -17 -72 -24 -36 -7 -67 -17
-70 -21 -3 -5 -18 -12 -33 -15 -15 -4 -27 -11 -27 -15 0 -5 -13 -11 -30 -15
-16 -4 -30 -11 -30 -16 0 -5 -7 -9 -15 -9 -9 0 -18 -7 -21 -15 -4 -8 -13 -15
-20 -15 -8 0 -30 -16 -50 -35 -19 -19 -38 -35 -42 -35 -8 0 -52 -45 -52 -54 0
-3 -18 -24 -40 -46 -22 -22 -40 -44 -40 -48 0 -5 -9 -17 -20 -27 -11 -10 -20
-23 -20 -30 0 -7 -9 -22 -20 -35 -11 -13 -20 -29 -20 -37 0 -7 -4 -13 -9 -13
-5 0 -12 -13 -16 -30 -4 -16 -11 -30 -15 -30 -5 0 -12 -16 -16 -35 -3 -19 -11
-35 -16 -35 -6 0 -8 -7 -4 -15 3 -8 1 -15 -3 -15 -5 0 -12 -18 -16 -40 -4 -22
-10 -40 -15 -40 -4 0 -11 -20 -14 -45 -8 -47 -11 -51 -36 -36 -12 8 -14 48
-14 231 0 150 4 224 11 228 6 4 14 37 18 75 4 37 11 67 15 67 4 0 11 20 14 45
4 25 12 45 18 45 6 0 8 9 5 20 -3 11 -2 20 3 20 4 0 10 18 14 40 3 22 10 40
15 40 5 0 12 11 15 25 4 14 10 25 15 25 5 0 12 14 16 30 4 17 10 30 15 30 5 0
12 10 16 22 6 21 14 33 46 68 9 10 19 27 23 39 3 12 11 21 16 21 5 0 12 7 16
16 8 21 195 209 216 217 10 4 17 11 17 16 0 5 11 12 25 15 14 4 25 11 25 16 0
6 7 10 15 10 9 0 18 6 21 14 3 8 12 12 20 9 8 -3 14 -1 14 5 0 6 14 13 30 17
17 4 30 10 30 15 0 4 17 11 37 15 21 4 40 11 44 16 3 5 40 12 82 15 42 4 77
11 77 15 0 5 25 9 55 9 30 0 55 -4 55 -9 0 -4 32 -11 72 -15 40 -4 75 -10 78
-15 3 -4 18 -11 35 -15 16 -4 32 -11 35 -16 3 -4 22 -11 43 -15 32 -6 37 -5
37 12 0 24 -30 49 -69 58 -17 4 -31 11 -31 17 0 6 -11 8 -25 6 -13 -3 -26 0
-28 5 -3 11 -319 20 -367 11z m2269 -123 c4 -6 23 -12 42 -11 44 1 159 -22
159 -31 0 -4 19 -10 42 -14 23 -4 46 -11 52 -16 6 -5 23 -20 38 -33 l26 -23
-66 -7 c-37 -3 -88 -6 -114 -6 -27 0 -48 -4 -48 -9 0 -5 -43 -12 -95 -16 -52
-4 -95 -10 -95 -15 0 -4 -11 -5 -25 -2 -14 2 -25 0 -25 -6 0 -5 -18 -12 -40
-16 -22 -3 -40 -10 -40 -15 0 -5 -16 -12 -35 -15 -19 -4 -35 -11 -35 -16 0 -6
-6 -10 -14 -10 -8 0 -21 -6 -28 -14 -8 -7 -25 -17 -38 -21 -28 -8 -33 -13
-109 -84 -29 -28 -60 -51 -67 -51 -8 0 -18 -8 -21 -17 -8 -21 -28 -45 -70 -88
-18 -17 -33 -36 -33 -40 0 -4 -12 -19 -27 -33 -28 -26 -44 -48 -62 -89 -6 -13
-15 -23 -20 -23 -5 0 -12 -13 -16 -29 -3 -16 -13 -32 -21 -35 -8 -3 -14 -12
-14 -21 0 -8 -4 -15 -9 -15 -5 0 -12 -13 -16 -30 -4 -16 -10 -30 -14 -30 -5 0
-14 -20 -21 -45 -7 -25 -16 -45 -20 -45 -4 0 -11 -11 -14 -25 -4 -14 -10 -25
-15 -25 -5 0 -12 -13 -16 -30 -4 -16 -10 -30 -15 -30 -4 0 -10 -18 -14 -40 -3
-22 -10 -40 -15 -40 -5 0 -14 -27 -22 -60 -7 -33 -16 -60 -20 -60 -4 0 -10
-18 -14 -40 -4 -22 -10 -40 -15 -40 -4 0 -11 -20 -14 -45 -4 -25 -11 -45 -16
-45 -4 0 -11 -22 -15 -50 -4 -27 -11 -50 -15 -50 -5 0 -12 -20 -16 -45 -3 -25
-11 -45 -16 -45 -6 0 -8 -9 -5 -20 3 -11 1 -20 -4 -20 -5 0 -9 5 -9 10 0 6 -8
10 -18 10 -11 0 -29 9 -42 20 -13 11 -27 20 -32 20 -18 0 -51 44 -59 79 -5 20
-9 75 -9 124 0 48 -4 87 -9 87 -5 0 -12 43 -16 95 -4 52 -10 95 -15 95 -4 0
-11 25 -15 55 -3 30 -10 55 -15 55 -4 0 -11 20 -14 45 -4 25 -11 45 -16 45 -5
0 -11 13 -15 29 -3 16 -15 40 -27 53 -17 20 -19 32 -14 82 3 33 10 62 14 65 5
3 14 27 22 54 7 26 16 47 21 47 4 0 10 14 14 30 4 17 11 30 16 30 5 0 11 11
15 25 3 14 10 25 14 25 5 0 12 10 16 23 4 12 15 28 25 35 11 7 19 18 19 23 0
12 155 169 167 169 5 0 16 9 26 20 9 11 23 20 31 20 8 0 16 7 20 15 3 8 12 15
20 15 7 0 16 6 19 14 3 8 19 17 36 21 17 4 31 10 31 15 0 5 14 11 30 15 17 4
30 11 30 15 0 5 16 12 35 16 19 3 35 10 35 15 0 5 18 12 40 15 22 4 40 10 40
15 0 4 25 11 55 14 30 4 55 11 55 14 0 4 14 6 30 3 17 -2 30 0 30 6 0 16 70
20 323 18 169 -2 230 -5 236 -15z m-2029 -590 c0 -4 37 -11 82 -14 45 -4 84
-11 87 -16 3 -4 21 -12 39 -16 17 -3 32 -10 32 -15 0 -5 14 -11 30 -15 17 -4
30 -11 30 -16 0 -5 7 -9 15 -9 7 0 18 -8 24 -17 5 -10 13 -15 17 -11 4 4 17
-4 30 -17 13 -14 27 -25 33 -25 5 0 23 -13 39 -30 l30 -29 7 -166 c4 -91 10
-165 15 -165 4 0 10 -30 13 -67 4 -37 10 -69 15 -72 5 -3 12 -24 15 -45 4 -22
10 -42 15 -45 5 -3 13 -21 17 -38 3 -18 11 -33 17 -33 6 0 8 -7 4 -15 -3 -8
-1 -15 4 -15 4 0 11 -13 15 -30 4 -16 11 -30 16 -30 5 0 9 -7 9 -15 0 -9 7
-18 15 -21 16 -7 21 -44 6 -44 -6 0 -13 -20 -17 -45 -3 -25 -10 -45 -15 -45
-4 0 -11 -16 -15 -35 -3 -19 -9 -35 -13 -35 -4 0 -13 -22 -20 -50 -7 -27 -16
-50 -21 -50 -4 0 -11 -16 -14 -35 -4 -19 -11 -35 -16 -35 -4 0 -11 -13 -15
-30 -4 -17 -11 -30 -16 -30 -5 0 -9 -7 -9 -15 0 -9 -7 -18 -16 -22 -8 -3 -13
-12 -10 -19 3 -8 1 -14 -4 -14 -5 0 -12 -11 -16 -24 -3 -13 -16 -29 -30 -36
-13 -7 -26 -22 -30 -33 -7 -24 -79 -94 -104 -102 -10 -3 -21 -12 -24 -20 -3
-8 -10 -15 -16 -15 -6 0 -18 -6 -25 -12 -34 -31 -45 -38 -69 -44 -14 -3 -26
-10 -26 -15 0 -5 -18 -12 -40 -15 -22 -4 -40 -11 -40 -16 0 -5 -10 -6 -21 -3
-14 5 -25 2 -30 -6 -12 -21 -376 -20 -388 0 -5 8 -16 11 -25 8 -9 -4 -16 -3
-16 2 0 5 -16 12 -35 15 -19 4 -35 11 -35 15 0 5 -11 12 -25 15 -14 4 -25 11
-25 16 0 6 -7 10 -15 10 -9 0 -18 7 -21 15 -4 8 -11 15 -16 15 -10 0 -46 30
-76 63 -10 10 -37 41 -62 67 -61 66 -70 78 -70 89 0 6 -6 14 -13 18 -7 4 -19
23 -26 41 -8 17 -17 32 -21 32 -5 0 -11 13 -15 30 -4 17 -10 30 -15 30 -5 0
-11 14 -15 30 -4 17 -11 30 -15 30 -5 0 -12 16 -16 35 -3 19 -10 35 -15 35 -4
0 -11 16 -15 35 -3 19 -11 35 -16 35 -6 0 -8 7 -4 15 3 8 1 15 -3 15 -5 0 -12
23 -16 50 -4 28 -11 50 -16 50 -5 0 -9 7 -9 15 0 8 4 15 9 15 5 0 12 29 16 65
3 36 11 65 17 65 6 0 8 10 4 25 -4 14 -2 25 3 25 5 0 12 20 15 45 4 25 11 45
15 45 5 0 11 18 15 40 3 22 10 40 15 40 5 0 12 16 15 35 4 19 11 35 16 35 4 0
11 14 15 30 4 17 10 30 15 30 5 0 14 17 21 37 6 20 16 42 21 47 40 50 48 60
48 68 0 4 17 25 38 46 22 20 44 47 51 60 6 12 16 22 22 22 6 0 24 14 41 30 16
17 36 30 44 30 8 0 14 5 14 10 0 6 11 15 25 20 14 5 25 14 25 19 0 5 14 12 30
16 17 4 30 10 30 15 0 5 14 11 30 15 17 4 30 10 30 15 0 4 19 11 43 15 23 4
45 11 48 16 3 5 47 12 97 15 51 4 92 11 92 15 0 5 27 9 60 9 33 0 60 -4 60 -9z
m571 -361 c4 0 11 -16 15 -35 3 -19 10 -35 15 -35 5 0 6 -7 3 -15 -4 -8 -2
-15 4 -15 6 0 13 -24 17 -52 4 -29 11 -56 16 -59 5 -3 12 -60 16 -127 3 -67
10 -122 15 -122 4 0 8 -17 7 -37 -1 -38 -1 -38 -12 -10 -6 15 -14 27 -18 27
-5 0 -11 16 -15 35 -3 19 -10 35 -15 35 -4 0 -11 16 -15 35 -3 19 -10 35 -14
35 -5 0 -6 9 -3 21 3 12 1 24 -6 28 -7 4 -14 52 -18 119 -3 62 -10 112 -15
112 -4 0 -8 28 -7 63 1 58 2 60 11 30 6 -18 15 -33 19 -33z m196 -730 c10 -11
23 -20 31 -20 7 0 15 -6 18 -14 3 -8 16 -17 30 -20 15 -4 24 -14 24 -26 0 -11
-4 -20 -9 -20 -5 0 -12 -16 -15 -35 -4 -19 -11 -35 -15 -35 -5 0 -12 -16 -15
-35 -4 -19 -11 -35 -16 -35 -4 0 -11 -13 -15 -30 -4 -16 -11 -30 -17 -30 -6 0
-8 -7 -4 -15 3 -8 1 -15 -4 -15 -4 0 -11 -13 -15 -29 -3 -16 -13 -32 -21 -35
-8 -3 -14 -12 -14 -21 0 -8 -4 -15 -10 -15 -5 0 -10 -7 -10 -15 0 -9 -6 -18
-14 -21 -8 -3 -17 -16 -20 -30 -4 -13 -11 -24 -16 -24 -6 0 -10 -7 -10 -15 0
-7 -6 -18 -13 -22 -7 -4 -18 -20 -24 -35 -7 -16 -17 -28 -23 -28 -5 0 -10 -6
-10 -13 0 -7 -13 -24 -30 -37 -16 -14 -29 -30 -30 -36 0 -7 -16 -28 -35 -47
-19 -19 -35 -38 -35 -43 0 -7 -80 -85 -156 -151 -20 -18 -43 -33 -51 -33 -7 0
-13 -5 -13 -10 0 -6 -11 -15 -25 -20 -14 -5 -25 -14 -25 -19 0 -5 -13 -12 -30
-16 -16 -4 -30 -11 -30 -15 0 -5 -22 -12 -50 -16 -27 -4 -50 -10 -50 -15 0 -5
-45 -9 -100 -9 -55 0 -100 4 -100 9 0 4 -30 11 -67 14 -37 4 -69 11 -72 16 -3
5 -25 12 -48 16 -24 4 -43 11 -43 17 0 6 -7 8 -15 4 -8 -3 -15 -1 -15 4 0 4
-14 11 -30 15 -17 4 -30 11 -30 16 0 5 -7 9 -15 9 -9 0 -18 7 -21 15 -4 8 -13
15 -20 15 -8 0 -17 7 -20 15 -4 8 -12 15 -19 15 -7 0 -30 16 -49 35 -20 19
-40 35 -44 35 -9 0 -42 37 -42 48 0 4 -13 19 -30 32 -16 14 -29 31 -30 38 0 7
-6 15 -14 18 -7 3 -19 23 -26 45 -7 21 -17 39 -22 39 -4 0 -8 7 -8 15 0 9 -6
18 -14 21 -8 3 -17 21 -20 40 -4 19 -11 34 -16 34 -5 0 -12 16 -16 35 -3 19
-10 35 -14 35 -4 0 -11 20 -14 45 -4 24 -11 47 -17 50 -5 4 -6 18 -3 32 4 14
2 28 -4 32 -6 4 -14 44 -18 89 -4 45 -11 82 -15 82 -5 0 -9 15 -8 33 l1 32 10
-32 c6 -18 14 -33 19 -33 4 0 13 -22 20 -50 7 -27 16 -50 20 -50 4 0 10 -13
14 -30 4 -16 10 -30 15 -30 5 0 11 -13 15 -30 4 -16 10 -30 15 -30 4 0 11 -12
14 -26 6 -24 13 -34 43 -68 7 -8 10 -16 7 -18 -2 -3 2 -11 11 -18 8 -7 15 -17
15 -22 0 -6 18 -28 40 -49 22 -22 40 -43 40 -48 0 -4 12 -17 26 -27 14 -10 38
-31 53 -45 14 -14 34 -28 44 -32 9 -3 17 -11 17 -18 0 -6 7 -9 15 -5 8 3 15 1
15 -4 0 -4 14 -11 30 -15 16 -4 30 -10 30 -15 0 -5 15 -12 33 -15 17 -4 35
-12 38 -16 3 -5 35 -12 72 -16 37 -3 67 -10 67 -14 0 -5 41 -9 90 -9 50 0 90
4 90 9 0 4 35 11 77 15 42 3 79 10 82 15 3 4 23 11 44 15 20 4 37 11 37 15 0
5 16 12 35 15 19 4 35 11 35 17 0 6 5 7 10 4 6 -3 17 1 26 9 8 9 22 16 30 16
8 0 14 5 14 10 0 6 8 14 17 17 24 10 193 181 193 196 0 8 11 20 25 27 13 7 27
26 30 41 4 16 11 29 16 29 5 0 11 11 15 25 3 14 9 25 13 25 9 0 31 60 31 83 0
9 4 17 9 17 5 0 12 14 16 30 4 17 10 30 15 30 4 0 11 18 15 40 4 22 10 40 15
40 4 0 10 19 14 42 10 60 41 76 73 38z"/>
<path d="M4035 4001 c-3 -17 -1 -39 5 -50 15 -28 -10 -29 -35 -1 -23 25 -30
25 -54 -1 -17 -18 -26 -20 -70 -14 -28 4 -51 11 -51 16 0 5 -11 9 -25 9 -14 0
-25 -3 -25 -7 1 -11 69 -41 113 -48 40 -8 61 -25 30 -25 -17 -1 -16 -2 2 -16
15 -12 40 -15 101 -12 75 3 83 5 112 35 24 24 32 40 32 67 0 20 -4 36 -9 36
-5 0 -11 9 -14 20 -4 17 -14 20 -55 20 -48 0 -51 -2 -57 -29z"/>
<path d="M3710 3931 c0 -5 16 -12 35 -15 19 -4 35 -11 35 -16 0 -6 5 -10 11
-10 6 0 56 -44 110 -97 126 -126 145 -143 157 -143 6 0 12 -6 14 -12 3 -9 33
-13 103 -13 70 0 100 4 102 13 3 6 10 12 16 12 15 0 57 44 57 59 0 6 5 11 10
11 6 0 10 14 10 30 0 17 -4 30 -10 30 -5 0 -10 6 -10 14 0 19 -57 76 -76 76
-8 0 -14 5 -14 10 0 6 -20 10 -45 10 -25 0 -45 -4 -45 -10 0 -5 -7 -10 -15
-10 -9 0 -18 -6 -21 -14 -3 -8 -19 -18 -35 -21 -16 -4 -29 -11 -29 -16 0 -5
-16 -9 -35 -9 -19 0 -35 4 -35 9 0 5 -18 11 -39 15 -22 3 -46 13 -55 21 -8 8
-17 15 -19 15 -3 0 -31 16 -63 35 -54 33 -114 46 -114 26z"/>
<path d="M3490 3621 c0 -4 -41 -11 -92 -15 -50 -3 -94 -9 -97 -12 -14 -13 31
-22 140 -29 66 -4 119 -11 119 -16 0 -5 11 -9 23 -9 13 0 34 -9 47 -20 13 -11
29 -20 37 -20 7 0 13 -4 13 -10 0 -5 -4 -10 -9 -10 -5 0 -11 -9 -14 -20 -3
-11 -12 -20 -21 -20 -9 0 -16 -4 -16 -10 0 -6 -33 -10 -80 -10 -44 0 -80 4
-80 9 0 5 -24 12 -52 16 -29 4 -55 11 -58 15 -8 13 -120 24 -120 12 0 -6 13
-23 28 -39 16 -15 31 -36 35 -45 3 -10 12 -18 19 -18 8 0 25 -13 39 -29 14
-15 36 -32 49 -36 14 -4 28 -13 32 -19 11 -16 200 -15 206 2 2 6 10 12 18 12
10 0 14 13 14 44 0 40 3 46 30 58 17 7 30 16 30 20 0 3 14 9 30 13 17 4 30 11
30 16 0 5 6 9 13 9 6 0 23 12 36 25 19 20 22 32 17 60 -4 20 -13 35 -21 35 -7
0 -15 5 -17 10 -2 6 -29 14 -61 17 -31 3 -57 10 -57 14 0 5 -47 9 -105 9 -58
0 -105 -4 -105 -9z"/>
<path d="M7603 3153 c-13 -2 -23 -8 -23 -13 0 -5 -13 -11 -30 -15 -16 -4 -30
-10 -30 -15 0 -4 -13 -13 -30 -20 -16 -7 -30 -16 -30 -21 0 -5 -6 -9 -13 -9
-7 0 -24 -13 -37 -30 -14 -16 -29 -29 -34 -30 -4 0 -26 -17 -47 -37 -64 -61
-123 -120 -140 -139 -9 -11 -49 -50 -88 -87 -39 -38 -71 -72 -71 -77 0 -5 -27
-37 -60 -72 -101 -107 -120 -128 -120 -137 0 -7 -16 -27 -84 -101 -7 -8 -16
-25 -20 -37 -4 -11 -13 -24 -21 -27 -8 -3 -15 -10 -15 -16 0 -6 -5 -16 -10
-23 -41 -48 -50 -62 -50 -72 0 -7 -7 -15 -15 -19 -8 -3 -15 -12 -15 -19 0 -12
-9 -25 -49 -74 -6 -6 -13 -23 -17 -37 -3 -14 -10 -26 -15 -26 -5 0 -9 -7 -9
-15 0 -7 -6 -18 -13 -22 -6 -4 -18 -20 -26 -35 -8 -16 -20 -28 -27 -28 -7 0
-26 -13 -42 -30 -17 -16 -34 -30 -39 -30 -5 0 -19 -11 -31 -25 -12 -14 -28
-25 -34 -25 -7 -1 -24 -14 -38 -30 -13 -17 -28 -30 -33 -30 -6 0 -20 -11 -32
-24 -13 -14 -25 -22 -29 -19 -3 3 -18 -8 -33 -26 -15 -17 -31 -31 -36 -31 -5
0 -26 -18 -47 -40 -21 -22 -42 -40 -48 -40 -5 0 -20 -11 -33 -25 -13 -13 -29
-25 -34 -25 -6 0 -21 -13 -35 -30 -14 -16 -29 -30 -34 -30 -5 0 -19 -11 -31
-24 -13 -14 -25 -22 -28 -19 -3 3 -12 0 -19 -6 -45 -39 -62 -51 -70 -51 -5 0
-18 -9 -30 -20 -24 -22 -38 -26 -38 -10 0 6 11 16 25 22 13 6 27 20 31 32 3
12 18 32 33 46 15 14 30 33 34 43 3 9 11 17 16 17 5 0 13 9 16 21 4 11 20 34
36 52 16 18 36 39 43 47 7 8 16 25 20 37 4 11 13 24 21 27 8 3 15 12 15 20 0
7 7 16 15 20 8 3 15 12 15 21 0 8 4 15 10 15 5 0 12 11 16 24 3 14 12 27 19
30 7 2 16 18 20 34 3 17 13 33 21 36 8 3 14 12 14 21 0 8 4 15 10 15 5 0 12
11 16 25 3 14 10 25 15 25 5 0 9 7 9 15 0 9 6 18 14 21 8 3 18 19 21 36 4 16
13 32 20 34 7 3 16 16 19 30 4 13 11 24 16 24 6 0 10 6 10 13 0 8 9 24 20 37
21 24 27 60 10 60 -5 0 -10 -4 -10 -10 0 -5 -11 -12 -24 -16 -13 -3 -29 -16
-36 -30 -10 -18 -22 -24 -47 -24 -18 0 -33 5 -33 10 0 6 -25 10 -55 10 -30 0
-55 -4 -55 -10 0 -5 -7 -10 -15 -10 -9 0 -19 -8 -22 -17 -4 -10 -16 -27 -28
-38 -11 -11 -27 -33 -35 -50 -8 -16 -19 -35 -25 -42 -5 -7 -15 -18 -21 -26 -6
-7 -15 -23 -18 -35 -4 -12 -12 -22 -17 -22 -5 0 -9 -7 -9 -15 0 -9 -7 -18 -15
-21 -8 -4 -15 -12 -15 -19 0 -8 -7 -21 -16 -29 -8 -9 -13 -16 -9 -16 4 0 -1
-7 -9 -16 -9 -8 -16 -22 -16 -30 0 -8 -5 -14 -10 -14 -6 0 -14 -8 -17 -17 -4
-10 -11 -22 -15 -28 -5 -5 -17 -21 -28 -34 -11 -13 -20 -30 -20 -38 0 -7 -5
-13 -11 -13 -5 0 -15 -13 -20 -29 -6 -16 -17 -32 -25 -35 -8 -3 -14 -12 -14
-21 0 -8 -7 -15 -15 -15 -8 0 -23 -9 -32 -20 -10 -11 -23 -20 -29 -20 -7 0
-14 -7 -18 -15 -3 -8 -12 -15 -21 -15 -8 0 -15 -4 -15 -9 0 -5 -13 -12 -30
-16 -16 -4 -30 -10 -30 -15 0 -4 -9 -6 -20 -3 -11 3 -20 1 -20 -5 0 -5 -15
-12 -32 -15 -46 -7 -68 19 -68 78 0 25 4 45 9 45 5 0 12 13 16 30 4 17 11 30
16 30 5 0 9 7 9 15 0 9 7 18 16 22 8 3 13 12 10 19 -3 8 -1 14 4 14 5 0 12 10
16 22 6 20 12 29 40 61 5 7 13 20 17 30 3 9 11 17 16 17 5 0 12 11 15 25 4 14
11 25 17 25 6 0 7 5 4 10 -3 6 0 17 7 25 26 29 34 40 41 58 3 9 11 17 16 17 5
0 12 13 16 29 3 16 13 32 21 35 8 3 14 12 14 21 0 8 4 15 10 15 5 0 12 11 16
24 3 14 12 27 19 30 7 2 16 18 20 34 3 17 13 33 21 36 8 3 14 12 14 21 0 8 5
15 10 15 6 0 10 7 10 15 0 8 -7 15 -15 15 -8 0 -15 -4 -15 -10 0 -5 -6 -10
-13 -10 -7 0 -23 -13 -37 -30 -18 -22 -33 -30 -57 -30 -18 0 -33 5 -33 10 0
14 -99 12 -115 -2 -7 -7 -27 -24 -44 -38 -17 -13 -33 -37 -36 -52 -4 -15 -11
-28 -16 -28 -5 0 -11 -11 -15 -24 -3 -14 -12 -27 -20 -30 -8 -3 -14 -12 -14
-21 0 -8 -4 -15 -10 -15 -5 0 -10 -7 -10 -15 0 -9 -7 -18 -15 -21 -8 -4 -15
-12 -15 -20 0 -8 -22 -36 -50 -63 -27 -27 -50 -52 -50 -56 0 -8 -34 -47 -63
-73 -11 -10 -49 -46 -87 -82 -71 -69 -109 -100 -122 -100 -4 0 -21 -14 -38
-30 -17 -17 -37 -30 -45 -30 -8 0 -15 -4 -15 -9 0 -5 -13 -12 -30 -16 -16 -4
-30 -11 -30 -16 0 -6 -5 -7 -11 -3 -6 3 -14 2 -18 -3 -3 -6 -27 -13 -52 -17
-38 -6 -49 -3 -72 16 -15 13 -27 29 -27 36 0 7 -4 12 -10 12 -5 0 -10 14 -10
30 0 17 4 30 9 30 5 0 12 13 16 30 4 17 11 30 16 30 5 0 9 7 9 15 0 9 6 18 14
21 8 3 17 16 20 30 4 13 11 24 16 24 6 0 15 11 20 25 5 14 14 25 19 25 5 0 12
11 15 25 4 14 11 25 16 25 6 0 10 7 10 15 0 9 7 18 15 21 8 4 15 10 15 15 0
11 41 72 52 77 4 2 4 10 1 18 -3 8 0 14 6 14 7 0 15 8 18 18 4 9 11 22 15 27
5 6 17 21 28 34 11 13 20 30 20 38 0 7 5 13 10 13 6 0 14 8 17 17 19 49 31 53
159 53 124 0 134 3 134 41 0 5 -51 9 -114 9 -108 0 -114 1 -109 19 3 11 11 22
19 25 8 3 14 12 14 20 0 7 7 16 15 20 8 3 15 14 15 25 0 10 7 21 15 25 8 3 15
12 15 20 0 7 7 16 15 20 8 3 15 12 15 19 0 8 9 25 20 38 11 13 23 29 28 34 4
6 11 18 15 28 3 9 11 17 17 17 5 0 10 6 10 14 0 8 6 21 13 28 6 7 19 27 27 43
8 17 21 34 27 38 17 11 16 47 -1 47 -18 0 -62 -42 -71 -68 -3 -12 -11 -22 -16
-22 -5 0 -12 -7 -16 -16 -3 -9 -25 -36 -48 -59 -24 -23 -46 -52 -50 -64 -3
-11 -10 -21 -14 -21 -4 0 -24 -16 -44 -35 -20 -19 -40 -35 -44 -35 -5 0 -19
-13 -33 -30 -14 -16 -29 -30 -35 -30 -9 0 -26 -13 -82 -59 -6 -6 -23 -13 -37
-17 -14 -3 -26 -10 -26 -14 0 -5 -64 -10 -143 -12 -118 -2 -146 -6 -160 -20
-9 -9 -17 -19 -17 -22 0 -3 50 -6 111 -6 110 0 110 0 103 -22 -4 -13 -10 -25
-15 -28 -4 -3 -10 -17 -14 -32 -4 -15 -13 -29 -21 -32 -8 -3 -14 -12 -14 -21
0 -8 -4 -15 -9 -15 -5 0 -12 -13 -16 -30 -4 -16 -11 -30 -16 -30 -6 0 -15 -13
-20 -29 -5 -15 -21 -34 -34 -41 -14 -7 -27 -22 -31 -33 -8 -26 -106 -123 -132
-131 -11 -4 -23 -13 -26 -21 -3 -8 -12 -15 -20 -15 -7 0 -16 -7 -20 -15 -3 -8
-12 -15 -21 -15 -8 0 -15 -4 -15 -9 0 -5 -14 -12 -30 -16 -16 -4 -30 -11 -30
-15 0 -5 -16 -12 -35 -16 -19 -3 -35 -10 -35 -14 0 -5 -9 -6 -21 -3 -12 3 -24
1 -28 -4 -3 -5 -23 -13 -43 -16 -28 -4 -38 -2 -38 8 0 7 4 15 10 17 5 2 13 31
16 66 4 34 11 62 15 62 5 0 9 27 9 60 0 33 -4 60 -9 60 -4 0 -11 27 -15 60 -4
33 -11 60 -16 60 -5 0 -12 16 -16 35 -3 19 -11 35 -16 35 -6 0 -8 6 -5 14 3 8
1 16 -5 18 -15 5 -13 59 2 68 7 4 10 12 6 18 -3 5 1 12 9 16 8 3 15 12 15 21
0 8 4 15 10 15 5 0 12 16 16 35 3 19 10 35 15 35 5 0 9 11 9 25 0 14 -4 25
-10 25 -5 0 -10 7 -10 15 0 8 -7 15 -15 15 -8 0 -15 5 -15 10 0 6 -18 10 -40
10 -22 0 -40 -4 -40 -9 0 -5 -13 -12 -29 -16 -20 -4 -34 -16 -43 -36 -7 -16
-16 -29 -20 -29 -4 0 -11 -18 -14 -40 -4 -22 -10 -40 -15 -40 -5 0 -9 -46 -9
-101 0 -102 0 -102 -32 -134 -18 -18 -40 -41 -50 -51 -25 -29 -65 -64 -73 -64
-4 0 -35 -29 -70 -65 -38 -38 -72 -65 -84 -65 -12 0 -21 -4 -21 -10 0 -5 -9
-10 -19 -10 -23 0 -81 -55 -81 -76 0 -8 -4 -14 -10 -14 -5 0 -10 -8 -10 -17 0
-17 -40 -63 -54 -63 -4 0 -17 -10 -29 -23 -12 -13 -30 -26 -39 -30 -10 -3 -18
-11 -18 -17 0 -6 -5 -8 -11 -4 -6 3 -15 1 -19 -5 -9 -15 -80 -26 -114 -17 -19
5 -26 13 -26 31 0 14 5 25 10 25 6 0 10 7 10 15 0 9 7 18 15 21 8 4 15 12 15
20 0 8 11 24 25 36 14 12 25 26 25 31 0 5 11 20 24 32 13 12 27 31 30 43 4 11
13 23 21 26 8 3 15 10 15 16 0 6 11 21 25 34 13 13 22 26 19 29 -4 3 6 17 20
30 14 13 26 29 26 35 0 6 9 16 20 22 11 6 20 16 20 22 0 6 12 21 26 34 14 13
22 29 19 34 -3 6 -2 10 4 10 6 0 13 11 17 25 3 14 10 25 15 25 5 0 9 32 9 70
0 64 -3 73 -26 95 -15 14 -35 25 -45 25 -11 0 -19 5 -19 10 0 6 -27 10 -60 10
-33 0 -60 -4 -60 -9 0 -5 -22 -11 -50 -15 -27 -4 -50 -11 -50 -16 0 -4 -14
-11 -30 -15 -17 -4 -30 -11 -30 -17 0 -6 -7 -8 -15 -4 -8 3 -15 1 -15 -4 0 -4
-13 -11 -29 -15 -16 -3 -32 -13 -35 -21 -3 -8 -12 -14 -21 -14 -8 0 -15 -4
-15 -9 0 -5 -11 -12 -25 -15 -14 -4 -25 -11 -25 -16 0 -6 -7 -10 -15 -10 -9 0
-18 -7 -21 -15 -4 -8 -10 -15 -15 -15 -12 0 2 33 18 43 7 4 13 15 13 22 0 8 4
15 9 15 5 0 13 10 17 22 3 12 12 28 18 35 29 32 36 43 36 52 0 6 8 14 18 20
14 8 15 12 3 23 -11 10 -14 10 -18 1 -3 -7 -11 -13 -19 -13 -8 0 -17 -7 -20
-15 -4 -8 -13 -15 -20 -15 -8 0 -17 -7 -20 -15 -7 -17 -74 -21 -74 -5 0 14
-89 12 -105 -3 -8 -6 -28 -23 -45 -37 -16 -13 -30 -30 -30 -37 0 -7 -4 -13
-10 -13 -5 0 -12 -11 -16 -25 -3 -14 -9 -25 -13 -25 -4 0 -13 -16 -21 -35 -8
-19 -17 -35 -22 -35 -4 0 -8 -7 -8 -15 0 -9 -6 -18 -14 -21 -8 -3 -17 -16 -20
-30 -4 -13 -11 -24 -16 -24 -6 0 -10 -6 -10 -13 0 -8 -9 -24 -20 -37 -11 -13
-20 -29 -20 -37 0 -7 -4 -13 -8 -13 -5 0 -14 -16 -22 -35 -7 -19 -19 -36 -27
-39 -7 -3 -13 -12 -13 -21 0 -8 -4 -15 -9 -15 -5 0 -12 -11 -15 -25 -4 -14
-11 -25 -16 -25 -6 0 -10 -6 -10 -13 0 -8 -9 -24 -20 -37 -11 -13 -20 -29 -20
-37 0 -7 -6 -16 -14 -19 -8 -3 -17 -17 -21 -31 -3 -13 -10 -30 -16 -36 -40
-49 -49 -62 -49 -74 0 -7 -4 -13 -10 -13 -12 0 -13 -10 -1 -28 6 -11 15 -7 40
17 17 17 38 31 46 31 8 0 15 6 15 13 0 9 2 9 9 -1 5 -9 33 -14 82 -15 64 -2
77 1 96 20 11 11 24 30 27 41 4 11 13 23 21 26 8 3 15 12 15 21 0 8 4 15 8 15
5 0 14 16 22 35 7 19 19 36 27 39 7 3 13 14 13 25 0 10 7 21 15 25 8 3 15 12
15 20 0 7 7 16 15 20 8 3 15 11 15 17 0 6 11 22 24 34 14 13 22 25 20 28 -3 3
13 23 35 45 23 22 41 43 41 47 0 10 146 155 155 155 4 0 20 13 36 29 15 16 37
32 48 36 12 3 21 10 21 15 0 4 12 11 26 14 15 4 33 14 41 21 8 8 28 15 44 15
16 0 29 5 29 10 0 6 7 10 15 10 8 0 15 -4 15 -8 0 -5 10 -14 23 -20 12 -6 16
-11 10 -11 -7 -1 -13 -8 -13 -16 0 -9 -6 -18 -14 -21 -8 -3 -17 -16 -20 -30
-4 -13 -11 -24 -16 -24 -6 0 -15 -11 -20 -25 -5 -14 -14 -25 -19 -25 -5 0 -13
-10 -17 -22 -4 -12 -20 -33 -35 -47 -16 -14 -29 -29 -29 -34 0 -4 -11 -18 -25
-31 -14 -13 -25 -27 -25 -32 0 -9 -32 -50 -74 -95 -14 -15 -28 -39 -32 -53 -3
-14 -10 -26 -15 -26 -4 0 -11 -16 -15 -35 -3 -19 -10 -35 -15 -35 -5 0 -9 -13
-9 -30 0 -16 5 -30 10 -30 6 0 10 -13 10 -29 0 -16 7 -36 15 -45 8 -8 15 -19
15 -24 0 -5 12 -13 27 -17 15 -3 31 -12 35 -18 9 -15 177 -15 186 0 4 5 24 13
45 17 20 4 37 11 37 16 0 6 7 10 15 10 9 0 18 7 21 15 4 8 11 15 18 15 6 0 19
9 29 20 22 26 67 27 67 1 0 -23 40 -66 71 -76 13 -4 27 -13 31 -19 10 -15 276
-15 286 0 4 6 24 14 45 18 20 4 37 11 37 15 0 5 12 12 26 15 14 4 38 20 52 36
15 16 39 32 55 35 15 4 27 11 27 15 0 4 29 11 65 15 36 3 65 10 65 15 0 5 20
12 45 16 25 3 45 10 45 14 0 4 18 12 40 19 22 6 40 16 40 20 0 5 11 12 25 15
14 4 25 11 25 16 0 6 5 10 10 10 6 0 29 18 52 40 22 23 43 39 45 36 3 -3 -2
-12 -11 -21 -9 -9 -16 -22 -16 -30 0 -7 -6 -15 -12 -17 -18 -6 -18 -190 0
-195 6 -3 12 -10 12 -16 0 -15 44 -57 58 -57 6 0 12 -5 14 -12 5 -14 199 -13
207 1 3 5 27 12 54 16 26 4 47 11 47 15 0 5 14 11 30 15 16 4 30 10 30 15 0 5
14 11 31 15 17 4 33 13 36 21 3 8 12 14 19 14 8 0 17 7 20 15 3 8 15 17 25 20
20 7 116 99 157 151 26 34 29 26 5 -19 -20 -39 -25 -188 -6 -194 7 -3 9 -11 6
-19 -3 -8 0 -14 6 -14 6 0 11 -7 11 -15 0 -8 7 -15 15 -15 7 0 18 -7 23 -16 7
-13 27 -16 97 -16 48 0 90 4 94 10 3 5 21 13 39 17 17 3 32 10 32 15 0 5 14
11 30 15 17 4 30 10 30 15 0 5 10 12 23 16 12 3 31 14 41 23 18 15 18 15 5 -9
-8 -14 -19 -28 -26 -33 -6 -4 -14 -21 -18 -37 -4 -17 -10 -30 -15 -30 -4 0
-11 -11 -14 -25 -4 -14 -11 -25 -16 -25 -6 0 -10 -7 -10 -15 0 -17 -30 -35
-59 -35 -12 0 -21 -4 -21 -9 0 -5 -22 -12 -50 -16 -27 -4 -50 -10 -50 -15 0
-4 -20 -11 -45 -14 -25 -4 -45 -11 -45 -15 0 -5 -20 -12 -45 -15 -25 -4 -45
-11 -45 -16 0 -4 -9 -6 -20 -3 -11 3 -20 1 -20 -5 0 -6 -16 -14 -35 -18 -19
-3 -35 -10 -35 -14 0 -5 -13 -11 -30 -15 -16 -4 -30 -10 -30 -15 0 -4 -11 -11
-25 -14 -14 -4 -25 -10 -25 -15 0 -5 -14 -12 -30 -16 -17 -4 -35 -15 -40 -26
-6 -10 -15 -19 -20 -19 -13 0 -50 -32 -50 -44 0 -5 -12 -20 -26 -33 -19 -17
-28 -38 -32 -69 -2 -24 -9 -44 -13 -44 -5 0 -9 -7 -9 -15 0 -8 4 -15 9 -15 4
0 11 -19 13 -43 4 -34 14 -51 48 -85 26 -25 56 -44 76 -48 19 -3 34 -10 34
-15 0 -5 47 -9 105 -9 58 0 105 4 105 9 0 5 20 12 45 15 25 4 45 11 45 16 0 5
7 7 15 4 8 -4 15 -1 15 5 0 6 7 11 15 11 9 0 18 7 21 15 4 8 11 15 17 15 5 0
25 15 43 32 18 18 55 55 83 81 28 27 51 54 51 61 0 6 8 19 18 28 26 24 52 61
52 74 0 7 7 14 15 18 8 3 15 12 15 21 0 8 4 15 9 15 5 0 15 16 21 35 6 19 16
35 21 35 5 0 11 11 15 25 3 14 10 25 15 25 5 0 9 7 9 15 0 9 7 18 15 21 8 4
15 13 15 20 0 8 6 17 14 20 8 3 18 19 21 35 4 16 10 29 14 29 4 0 14 11 21 25
7 13 26 27 41 30 16 4 29 11 29 15 0 5 7 7 15 4 8 -4 15 -2 15 4 0 6 13 13 29
17 16 3 32 13 35 21 3 8 12 14 21 14 8 0 15 4 15 9 0 5 11 12 25 15 14 4 25
11 25 16 0 6 7 10 15 10 8 0 19 9 25 20 6 11 17 20 25 20 7 0 27 14 43 30 17
17 34 30 39 30 4 0 19 13 33 29 13 17 27 28 31 26 3 -3 19 9 35 25 16 16 34
30 39 30 6 1 21 14 35 30 13 17 28 30 33 30 5 0 22 14 39 30 16 17 35 30 41
30 7 0 23 14 37 30 14 17 29 30 35 30 6 0 23 14 38 31 19 21 27 26 27 15 0 -9
-4 -16 -9 -16 -5 0 -12 -16 -15 -35 -4 -19 -11 -35 -16 -35 -4 0 -11 -22 -15
-50 -4 -27 -11 -50 -16 -50 -5 0 -9 -43 -9 -95 0 -57 4 -95 10 -95 6 0 10 -11
10 -25 0 -14 7 -28 15 -31 8 -4 15 -12 15 -20 0 -8 5 -14 10 -14 6 0 22 -12
35 -26 23 -25 30 -27 111 -26 48 0 90 5 93 10 3 5 25 13 49 17 23 4 42 10 42
15 0 4 16 11 35 14 19 4 35 11 35 16 0 5 11 12 25 16 14 3 25 10 25 15 0 5 11
14 25 19 14 5 25 14 25 19 0 5 9 13 21 16 23 7 138 121 140 139 1 6 5 -26 9
-70 4 -46 13 -89 21 -98 53 -62 90 -94 115 -100 16 -4 32 -12 35 -18 9 -14
229 -14 238 0 3 5 25 13 49 17 23 4 42 11 42 15 0 5 14 11 30 15 17 4 30 10
30 15 0 5 14 11 30 15 17 4 30 11 30 16 0 6 5 7 10 4 6 -3 10 -1 10 4 0 6 6
11 14 11 8 0 21 6 28 14 8 7 24 17 36 21 13 3 37 20 55 36 18 16 39 36 47 43
8 7 25 16 37 20 11 4 24 13 27 21 3 8 11 15 17 15 6 0 30 20 53 45 24 25 47
45 53 45 11 0 35 23 137 130 21 22 42 40 47 40 5 0 9 7 9 15 0 8 9 23 20 32
11 10 20 25 20 34 0 19 -33 36 -38 19 -2 -6 -19 -26 -38 -44 -19 -18 -34 -36
-34 -40 0 -10 -75 -86 -84 -86 -5 0 -30 -23 -57 -50 -27 -28 -55 -50 -61 -50
-7 -1 -24 -14 -38 -30 -13 -17 -28 -30 -33 -30 -4 0 -18 -11 -31 -25 -13 -14
-28 -25 -34 -25 -6 0 -15 -6 -19 -13 -4 -7 -24 -19 -43 -27 -19 -8 -39 -20
-43 -27 -4 -7 -14 -13 -21 -13 -8 0 -16 -7 -20 -15 -3 -8 -12 -15 -21 -15 -8
0 -15 -4 -15 -9 0 -5 -13 -12 -30 -16 -16 -4 -30 -10 -30 -15 0 -4 -22 -14
-50 -21 -27 -7 -50 -16 -50 -20 0 -5 -27 -11 -60 -15 -33 -4 -60 -11 -60 -15
0 -5 -16 -9 -35 -9 -19 0 -35 4 -35 9 0 5 -11 12 -24 15 -17 4 -26 15 -31 37
-9 39 4 149 17 149 6 0 8 7 4 15 -3 8 -1 15 4 15 4 0 11 13 15 29 6 28 6 28
102 34 53 4 99 10 102 15 7 9 96 33 124 33 9 0 17 4 17 9 0 4 16 11 35 14 19
4 35 11 35 15 0 5 16 12 35 15 19 4 35 11 35 16 0 5 10 12 22 16 25 8 30 11
104 81 47 44 57 59 61 95 3 24 11 47 17 51 8 6 7 10 -1 14 -7 2 -13 16 -13 30
0 33 -59 91 -100 99 -16 4 -30 10 -30 15 0 5 -31 9 -70 9 -38 0 -70 -4 -70 -9
0 -5 -29 -12 -65 -16 -36 -3 -65 -10 -65 -15 0 -4 -16 -11 -35 -14 -19 -4 -35
-11 -35 -16 0 -5 -7 -7 -15 -4 -8 4 -15 2 -15 -4 0 -6 -13 -13 -30 -17 -16 -4
-30 -11 -30 -16 0 -5 -7 -9 -15 -9 -9 0 -18 -7 -21 -15 -4 -8 -11 -15 -18 -15
-13 0 -50 -26 -74 -52 -9 -10 -22 -18 -28 -18 -17 0 -104 -89 -104 -106 0 -8
-6 -17 -14 -20 -8 -3 -18 -19 -21 -35 -4 -16 -10 -29 -15 -29 -5 0 -11 -13
-15 -30 -4 -16 -11 -30 -16 -30 -5 0 -13 -8 -16 -17 -8 -20 -176 -193 -188
-193 -4 0 -18 -11 -31 -25 -13 -14 -27 -25 -33 -25 -5 0 -16 -6 -23 -12 -21
-20 -56 -38 -73 -38 -8 0 -15 -4 -15 -9 0 -5 -20 -12 -44 -15 -51 -8 -92 7
-100 37 -8 30 5 147 17 147 5 0 7 9 4 20 -3 11 -2 20 3 20 4 0 10 18 14 40 3
22 10 40 15 40 5 0 12 14 16 30 4 17 11 30 16 30 5 0 11 11 15 25 3 14 10 25
14 25 5 0 11 14 15 30 4 17 10 30 15 30 5 0 14 16 21 35 7 19 16 35 20 35 4 0
10 14 14 30 4 16 10 30 15 30 5 0 11 13 15 30 4 17 15 32 28 36 11 4 27 13 35
20 7 8 20 14 28 14 8 0 14 4 14 8 0 5 18 15 40 22 22 7 40 17 40 22 0 4 7 8
15 8 9 0 18 6 21 14 3 8 18 18 34 21 16 3 31 13 34 21 3 8 11 14 17 14 6 0 22
11 34 24 13 14 25 22 29 19 3 -3 18 8 33 26 15 17 31 31 35 31 10 0 278 266
278 275 0 4 14 20 30 37 17 16 30 36 30 44 0 8 5 14 10 14 6 0 15 11 20 25 5
14 14 25 19 25 5 0 12 11 15 25 4 14 11 25 16 25 6 0 10 6 10 13 0 8 9 24 20
37 11 13 20 29 20 37 0 7 4 13 9 13 5 0 12 16 15 35 4 19 12 35 17 35 7 0 8
12 4 30 -4 19 -3 30 4 30 6 0 11 19 11 45 0 25 -4 45 -10 45 -5 0 -12 11 -16
24 -3 13 -15 27 -27 30 -24 6 -99 6 -134 -1z m22 -67 c11 -9 13 -95 3 -111 -3
-6 -9 -25 -13 -42 -3 -18 -10 -33 -15 -33 -5 0 -11 -13 -15 -30 -4 -16 -11
-30 -16 -30 -5 0 -9 -7 -9 -15 0 -9 -7 -18 -15 -21 -8 -4 -15 -13 -15 -20 0
-8 -7 -17 -16 -21 -8 -3 -13 -12 -10 -19 3 -8 1 -14 -4 -14 -5 0 -12 -11 -16
-24 -3 -14 -12 -27 -20 -30 -8 -3 -14 -12 -14 -20 0 -7 -7 -16 -15 -20 -8 -3
-15 -11 -15 -17 0 -6 -11 -22 -25 -35 -14 -13 -25 -28 -25 -34 0 -6 -16 -26
-35 -44 -19 -19 -35 -37 -35 -41 0 -10 -167 -175 -177 -175 -5 0 -16 -9 -26
-20 -9 -11 -23 -20 -32 -20 -8 0 -19 -9 -25 -20 -6 -11 -17 -20 -25 -20 -8 0
-15 -4 -15 -10 0 -5 -11 -12 -25 -16 -14 -3 -25 -10 -25 -15 0 -5 -4 -9 -10
-9 -5 0 -10 9 -10 20 0 11 5 20 10 20 6 0 10 6 10 14 0 8 6 21 14 28 7 8 17
24 20 36 4 12 11 22 16 22 5 0 11 14 15 30 4 17 11 30 17 30 6 0 8 6 5 14 -3
8 1 17 9 20 8 3 14 12 14 21 0 8 5 15 10 15 6 0 10 7 10 15 0 9 6 18 14 21 8
3 17 16 20 30 4 13 11 24 16 24 6 0 10 6 10 13 0 8 9 24 20 37 11 13 20 29 20
37 0 7 7 16 15 19 8 4 15 12 15 20 0 8 9 22 20 31 11 10 20 23 20 29 0 7 7 14
15 18 8 3 15 12 15 21 0 8 4 15 9 15 5 0 13 10 17 23 3 12 13 29 20 37 69 76
84 94 84 105 0 6 11 17 24 24 13 7 36 33 51 57 15 24 33 44 39 44 6 0 20 11
31 23 20 23 52 29 70 13z m221 -973 c49 -65 -35 -181 -227 -311 -41 -27 -85
-53 -99 -57 -14 -4 -29 -11 -35 -15 -13 -10 -95 -24 -95 -16 0 8 31 58 40 66
4 3 9 12 12 21 3 8 40 60 81 115 116 154 190 214 266 214 30 0 48 -5 57 -17z
m-4126 -242 c0 -11 5 -21 12 -23 7 -3 11 -32 11 -83 0 -51 -4 -80 -11 -83 -7
-2 -12 -12 -12 -23 0 -11 -6 -22 -14 -25 -8 -3 -18 -19 -21 -35 -4 -16 -11
-29 -17 -29 -5 0 -16 -7 -25 -15 -17 -17 -53 -11 -66 11 -4 8 -14 14 -21 14
-8 0 -16 7 -20 15 -3 8 -12 15 -21 15 -8 0 -15 4 -15 10 0 5 -11 12 -25 16
l-25 6 31 27 c18 14 46 41 63 59 17 19 46 48 64 65 19 18 48 47 65 64 37 38
47 41 47 14z m-260 -291 c0 -5 6 -10 13 -10 8 0 22 -9 31 -19 10 -11 31 -23
47 -26 33 -8 35 -11 13 -32 -10 -11 -34 -15 -78 -15 -84 0 -114 26 -108 95 2
13 11 17 42 17 22 0 40 -4 40 -10z m1891 -419 c-7 -5 -11 -13 -8 -18 4 -6 -4
-16 -18 -23 -13 -7 -26 -23 -29 -36 -4 -13 -11 -24 -16 -24 -6 0 -10 -7 -10
-15 0 -9 -7 -18 -15 -21 -8 -3 -17 -15 -21 -27 -3 -11 -19 -31 -35 -45 -16
-13 -29 -29 -29 -35 0 -6 -20 -29 -45 -53 -25 -23 -45 -46 -45 -53 0 -6 -5
-11 -11 -11 -6 0 -30 -19 -52 -43 -23 -23 -55 -49 -72 -57 -16 -8 -34 -21 -38
-27 -4 -7 -16 -13 -27 -13 -10 0 -20 -5 -22 -11 -5 -16 -151 -16 -156 0 -2 6
-10 11 -17 11 -7 0 -16 11 -19 25 -4 14 -11 25 -16 25 -6 0 -10 14 -10 30 0
17 4 30 9 30 4 0 11 16 14 35 4 24 21 50 56 85 27 27 55 50 60 50 6 0 14 6 18
13 4 7 23 19 41 26 17 8 32 17 32 22 0 4 16 11 35 15 19 3 35 10 35 14 0 5 18
11 40 15 22 4 40 11 40 15 0 5 16 12 35 16 19 3 35 10 35 14 0 4 20 11 45 14
24 4 47 12 51 17 3 6 12 8 20 5 8 -3 14 -1 14 3 0 5 23 12 50 16 28 4 50 11
50 16 0 5 10 9 23 9 16 0 18 -3 8 -9z"/>
<path d="M3563 2673 c-18 -2 -33 -9 -33 -14 0 -6 -9 -7 -20 -4 -11 4 -20 2
-20 -4 0 -6 -9 -11 -20 -11 -11 0 -20 -4 -20 -10 0 -5 -7 -7 -15 -4 -10 4 -15
0 -15 -15 0 -12 5 -21 12 -21 16 0 98 -87 98 -105 0 -20 36 -19 44 0 3 8 17
15 31 15 14 0 25 4 25 9 0 5 9 11 20 14 25 6 26 35 3 52 -17 12 -17 14 1 34
11 12 25 21 31 21 12 0 25 21 25 41 0 9 -82 10 -147 2z"/>
<path d="M2254 1166 c-7 -7 -15 -27 -19 -44 -3 -18 -10 -32 -15 -32 -4 0 -11
-16 -14 -35 -4 -19 -12 -35 -18 -35 -5 0 -8 -7 -5 -15 4 -8 0 -27 -8 -42 -8
-15 -15 -34 -15 -40 0 -7 -4 -13 -9 -13 -5 0 -12 -16 -15 -35 -4 -19 -11 -35
-15 -35 -5 0 -12 -16 -15 -35 -4 -19 -11 -35 -16 -35 -6 0 -10 -6 -10 -14 0
-31 -77 -36 -103 -6 -15 17 -17 44 -17 185 0 152 2 167 20 185 11 11 31 20 45
20 14 0 25 5 25 10 0 6 -47 10 -120 10 -73 0 -120 -4 -120 -10 0 -5 16 -10 35
-10 31 0 35 -3 40 -32 4 -18 5 -58 3 -88 l-3 -55 -123 -3 -123 -3 3 88 c3 88
3 88 31 91 15 2 27 8 27 13 0 5 -47 9 -105 9 -63 0 -105 -4 -105 -10 0 -5 9
-10 20 -10 11 0 20 -7 20 -15 0 -8 5 -15 10 -15 6 0 10 -65 10 -175 0 -110 -4
-175 -10 -175 -5 0 -10 -7 -10 -15 0 -8 -9 -15 -20 -15 -11 0 -20 -7 -20 -15
0 -12 18 -15 105 -15 85 0 105 3 105 14 0 9 -12 16 -27 18 l-28 3 -3 103 -3
103 123 -3 123 -3 3 -82 c3 -98 -7 -123 -48 -123 -20 0 -30 -5 -30 -15 0 -13
28 -15 190 -15 162 0 190 2 190 15 0 8 -8 15 -17 15 -30 0 -48 17 -36 32 6 7
14 30 18 51 8 41 13 43 108 50 45 3 57 1 53 -10 -3 -7 -2 -13 3 -13 9 0 26
-48 23 -62 -1 -5 3 -8 8 -8 6 0 10 -9 10 -20 0 -16 -7 -20 -30 -20 -20 0 -30
-5 -30 -15 0 -12 18 -15 105 -15 78 0 105 3 105 13 0 7 -10 17 -22 22 -12 6
-29 24 -38 40 -8 17 -19 33 -24 36 -5 4 -5 12 -2 18 4 6 3 11 -3 11 -6 0 -13
16 -17 35 -3 19 -10 35 -14 35 -4 0 -11 16 -14 35 -4 19 -11 35 -15 35 -5 0
-12 16 -15 35 -4 19 -11 35 -15 35 -5 0 -12 16 -15 35 -4 19 -12 35 -18 35 -6
0 -8 8 -6 18 3 10 -1 23 -8 30 -16 15 -16 15 -30 -2z"/>
<path d="M2520 1150 c0 -5 9 -10 20 -10 11 0 20 -7 20 -15 0 -8 5 -15 10 -15
6 0 10 -65 10 -175 0 -110 -4 -175 -10 -175 -5 0 -10 -7 -10 -15 0 -8 -9 -15
-20 -15 -11 0 -20 -7 -20 -15 0 -12 18 -15 105 -15 85 0 105 3 105 14 0 9 -12
16 -27 18 l-28 3 -3 203 -2 202 30 0 c16 0 30 5 30 10 0 6 -42 10 -105 10 -63
0 -105 -4 -105 -10z"/>
<path d="M2800 1151 c0 -6 9 -11 20 -11 11 0 20 -4 20 -10 0 -5 7 -7 15 -4 13
5 15 -20 15 -190 l0 -196 -27 -6 c-46 -10 -53 -13 -53 -24 0 -15 212 -9 217 7
3 7 -8 13 -24 15 l-28 3 -3 93 -3 92 27 0 c17 0 28 -6 31 -20 3 -11 9 -20 13
-20 5 0 11 -13 15 -30 4 -16 10 -30 14 -30 4 0 13 -18 20 -40 6 -22 16 -40 21
-40 6 0 10 -9 10 -20 0 -18 7 -20 70 -20 56 0 70 3 70 15 0 9 -9 15 -25 15
-15 0 -28 7 -32 18 -4 9 -13 23 -20 30 -7 7 -13 19 -13 26 0 8 -6 19 -14 25
-8 7 -17 23 -21 38 -3 14 -13 32 -20 40 -20 20 -19 34 3 40 28 7 52 56 52 103
0 33 -6 48 -32 73 l-31 32 -144 3 c-99 3 -143 1 -143 -7z m200 -22 c0 -6 8 -9
18 -7 31 6 53 -25 54 -78 0 -28 -4 -50 -11 -52 -6 -2 -11 -8 -11 -14 0 -20
-30 -38 -64 -38 l-36 0 0 95 c0 80 2 93 15 89 8 -4 15 -1 15 5 0 6 5 11 10 11
6 0 10 -5 10 -11z"/>
<path d="M3650 1101 c0 -4 -23 -11 -52 -14 -28 -4 -54 -10 -57 -15 -3 -5 -17
-13 -30 -17 -14 -4 -29 -11 -35 -16 -49 -41 -60 -49 -67 -49 -4 0 -11 -10 -15
-22 -4 -13 -11 -26 -16 -29 -14 -9 -22 -115 -10 -123 6 -4 9 -13 5 -21 -3 -8
0 -15 6 -15 6 0 11 -6 11 -14 0 -7 7 -19 15 -26 26 -22 17 -28 -57 -35 -40 -4
-78 -12 -85 -17 -7 -5 -17 -7 -23 -3 -5 3 -10 1 -10 -4 0 -6 -9 -11 -20 -11
-11 0 -20 -5 -20 -11 0 -6 -6 -9 -12 -7 -14 5 -20 1 -90 -64 -28 -27 -54 -48
-59 -48 -5 0 -6 -7 -3 -15 4 -8 1 -15 -4 -15 -6 0 -14 -16 -18 -35 -3 -19 -10
-35 -15 -35 -15 0 -11 -178 4 -183 26 -9 -1 -15 -78 -17 -83 -2 -125 5 -125
22 0 5 -6 8 -12 6 -14 -5 -78 53 -78 71 0 6 -4 11 -10 11 -5 0 -7 7 -4 15 4 8
1 15 -5 15 -7 0 -11 24 -11 65 0 60 -2 65 -22 65 -12 0 -33 -12 -46 -27 -21
-25 -23 -36 -20 -99 3 -75 0 -70 77 -134 13 -11 30 -20 37 -20 7 0 14 -5 16
-10 2 -6 27 -13 56 -17 28 -3 52 -10 52 -14 0 -5 32 -9 70 -9 40 0 70 4 70 10
0 6 16 10 35 10 19 0 35 -5 35 -11 0 -6 17 -29 39 -50 21 -22 44 -39 50 -39 6
0 11 -4 11 -9 0 -5 14 -12 30 -16 17 -4 30 -11 30 -15 0 -5 16 -12 35 -16 19
-3 35 -11 35 -16 0 -5 9 -6 20 -3 12 4 28 1 37 -7 21 -17 326 -19 344 -1 6 6
18 9 25 6 8 -3 14 -1 14 5 0 5 16 13 35 16 19 4 35 11 35 15 0 5 11 12 25 15
39 10 126 103 132 142 3 19 10 34 14 34 5 0 9 23 9 50 0 28 -4 50 -9 50 -5 0
-11 14 -15 30 -6 32 -64 100 -85 100 -6 0 -11 4 -11 10 0 5 -17 12 -37 15 -21
4 -47 10 -58 15 -19 8 -19 9 3 9 12 1 22 5 22 10 0 5 18 12 40 16 22 4 40 11
40 17 0 6 11 8 25 4 14 -4 25 -2 25 4 0 5 9 10 20 10 11 0 20 5 20 11 0 6 9 8
20 4 11 -3 20 -2 20 3 0 6 18 13 40 17 22 4 40 10 40 15 0 5 18 11 40 15 22 4
40 11 40 15 0 5 14 11 30 15 17 4 30 10 30 15 0 5 9 11 20 15 26 8 87 70 82
84 -2 6 1 11 7 11 6 0 11 19 11 45 0 26 -5 45 -11 45 -6 0 -9 6 -7 12 5 13
-33 48 -51 48 -16 0 -14 -7 10 -40 17 -22 21 -38 17 -68 -6 -38 -37 -82 -58
-82 -6 0 -13 -7 -16 -15 -3 -8 -21 -17 -40 -21 -19 -3 -34 -10 -34 -15 0 -5
-18 -12 -40 -15 -22 -4 -40 -11 -40 -16 0 -6 -9 -8 -20 -5 -11 3 -20 1 -20 -4
0 -5 -13 -9 -29 -9 -17 0 -33 -5 -37 -11 -3 -6 -17 -8 -30 -5 -13 4 -24 2 -24
-3 0 -5 -27 -12 -60 -16 -33 -4 -60 -11 -60 -15 0 -4 -22 -11 -50 -15 -27 -4
-50 -11 -50 -15 0 -5 -18 -11 -40 -15 -22 -4 -40 -11 -40 -16 0 -5 -5 -9 -11
-9 -18 0 -119 -51 -119 -61 0 -5 -7 -9 -15 -9 -8 0 -15 -5 -15 -10 0 -6 -11
-21 -25 -34 -14 -13 -25 -30 -25 -37 0 -21 -33 -46 -71 -54 -19 -4 -36 -11
-39 -15 -3 -4 -16 -11 -29 -15 l-24 -7 7 63 c3 34 10 65 15 68 4 3 11 16 15
29 4 12 12 22 17 22 5 0 9 6 9 13 0 27 90 106 113 99 4 -1 7 2 7 8 0 5 18 13
40 16 22 4 40 10 40 15 0 5 38 9 85 9 50 0 85 4 85 10 0 6 -5 10 -11 10 -16 0
-80 66 -72 74 4 3 1 6 -5 6 -8 0 -12 21 -12 60 0 36 4 60 11 60 5 0 7 4 4 10
-6 10 -3 15 38 60 41 45 108 85 135 81 6 -1 12 3 12 9 0 6 33 10 85 10 55 0
85 -4 85 -11 0 -6 7 -8 16 -5 15 6 61 -18 76 -39 4 -5 8 -26 8 -46 0 -36 -32
-79 -58 -79 -7 0 -12 -4 -12 -9 0 -6 -27 -10 -60 -10 -33 0 -60 4 -60 9 0 4
-11 11 -25 14 -14 4 -25 11 -25 16 0 6 -7 10 -15 10 -23 0 -18 -28 8 -41 12
-7 25 -17 29 -23 10 -14 157 -14 166 1 4 6 20 15 35 18 17 5 29 16 33 31 3 13
10 24 15 24 5 0 9 18 9 40 0 32 -7 46 -35 75 -20 19 -47 38 -60 41 -14 3 -25
10 -25 15 0 5 -10 9 -22 9 -46 0 -108 12 -108 21 0 5 -34 9 -75 9 -41 0 -75
-4 -75 -9z m90 -620 c0 -5 15 -12 33 -15 33 -6 107 -72 107 -95 0 -6 3 -11 8
-11 4 0 7 -29 7 -65 0 -36 -3 -65 -7 -65 -5 0 -8 -6 -8 -14 0 -19 -90 -117
-101 -110 -5 3 -9 1 -9 -4 0 -6 -12 -13 -27 -17 -15 -3 -31 -12 -35 -18 -11
-18 -256 -16 -267 2 -5 7 -13 11 -18 8 -6 -4 -20 3 -32 14 -12 11 -26 17 -31
14 -6 -3 -10 -1 -10 4 0 6 -5 11 -11 11 -18 0 -85 72 -94 100 -4 14 -12 28
-18 32 -15 9 20 41 38 34 8 -3 15 -2 15 3 0 10 38 24 58 22 6 -1 12 3 12 9 0
22 30 8 36 -17 9 -35 64 -90 98 -99 14 -3 26 -10 26 -14 0 -8 32 -11 100 -10
71 1 90 3 90 11 0 5 6 9 13 9 27 0 52 44 52 92 0 46 -4 52 -60 95 -5 5 -20 7
-32 5 -13 -2 -23 1 -23 7 0 6 -13 11 -30 11 -16 0 -30 -4 -30 -10 0 -5 14 -10
30 -10 17 0 30 -4 30 -9 0 -5 13 -12 29 -16 31 -7 41 -26 41 -82 0 -57 -50
-80 -151 -71 -67 7 -100 38 -101 95 0 53 7 63 43 63 16 0 29 5 29 10 0 6 -7
10 -15 10 -23 0 -18 18 13 45 49 44 52 46 62 40 6 -3 10 -1 10 4 0 7 26 11 65
11 36 0 65 -4 65 -9z"/>
<path d="M6336 484 c-5 -14 -29 -15 -196 -12 l-190 3 -6 -42 c-3 -24 -10 -43
-15 -43 -5 0 -9 -7 -9 -15 0 -25 24 -17 53 17 48 54 118 77 131 42 3 -9 6 -95
6 -192 -1 -188 -6 -212 -49 -212 -11 0 -21 -4 -21 -10 0 -6 45 -10 115 -10 70
0 115 4 115 10 0 6 -14 10 -31 10 -54 0 -58 16 -59 212 0 97 3 183 6 192 7 18
69 23 79 6 3 -5 15 -10 26 -10 12 0 24 -11 32 -27 24 -56 47 -57 47 -1 l0 42
30 -29 c17 -16 30 -33 30 -37 0 -5 5 -14 10 -21 45 -52 61 -75 77 -104 10 -18
21 -33 25 -33 9 0 11 -151 2 -174 -3 -9 -17 -16 -30 -16 -13 0 -24 -4 -24 -10
0 -6 42 -10 105 -10 63 0 105 4 105 10 0 6 -13 10 -29 10 -37 0 -41 12 -41
116 0 65 3 86 15 90 8 3 17 15 20 25 4 11 19 33 33 49 52 57 72 83 72 94 0 13
55 46 76 46 8 0 14 5 14 10 0 6 -37 10 -90 10 -73 0 -90 -3 -90 -15 0 -11 8
-13 30 -8 26 5 30 3 30 -16 0 -11 -4 -21 -10 -21 -5 0 -10 -7 -10 -15 0 -8 -9
-23 -20 -32 -11 -10 -20 -22 -20 -27 0 -5 -13 -21 -28 -36 -23 -22 -32 -25
-50 -17 -13 6 -21 15 -19 21 2 6 0 15 -5 21 -5 5 -17 21 -28 34 -11 13 -20 30
-20 37 0 7 -5 14 -12 16 -19 7 -1 38 22 38 11 0 20 5 20 10 0 6 -38 10 -95 10
-76 0 -97 3 -101 15 -8 20 -20 19 -28 -1z"/>
<path d="M5154 466 c-7 -7 -15 -27 -19 -44 -3 -18 -10 -32 -15 -32 -4 0 -11
-16 -14 -35 -4 -19 -11 -35 -17 -35 -6 0 -8 -4 -5 -9 6 -10 -16 -61 -26 -61
-4 0 -5 -7 -2 -15 4 -8 2 -15 -4 -15 -6 0 -13 -18 -17 -40 -4 -22 -11 -40 -15
-40 -5 0 -12 -14 -15 -32 -7 -32 -45 -78 -65 -78 -5 0 -10 -4 -10 -10 0 -6 33
-10 80 -10 80 0 106 12 50 23 -18 4 -30 13 -30 22 0 8 4 15 9 15 5 0 12 20 15
44 8 52 16 56 102 56 52 0 62 -3 58 -15 -4 -8 -1 -15 4 -15 6 0 14 -16 18 -35
3 -19 10 -35 15 -35 5 0 9 -9 9 -20 0 -16 -7 -20 -30 -20 -16 0 -30 -4 -30
-10 0 -6 42 -10 105 -10 63 0 105 4 105 10 0 6 -4 10 -10 10 -17 0 -49 38 -56
65 -3 14 -10 25 -15 25 -5 0 -6 7 -3 15 4 8 2 15 -4 15 -10 0 -25 37 -23 58 1
6 -3 12 -8 12 -6 0 -13 16 -17 35 -3 19 -10 35 -14 35 -5 0 -11 14 -15 30 -4
17 -10 30 -15 30 -4 0 -11 16 -14 35 -4 19 -11 35 -15 35 -5 0 -11 14 -14 30
-7 32 -16 37 -33 16z"/>
<path d="M4100 460 c0 -5 -13 -10 -30 -10 -40 0 -38 -18 3 -22 l32 -3 3 -175
c3 -205 1 -220 -33 -220 -14 0 -25 -4 -25 -10 0 -13 317 -14 325 0 3 5 12 7
20 3 8 -3 15 0 15 6 0 6 5 11 10 11 6 0 20 10 33 22 18 19 22 34 22 80 -1 47
-5 60 -25 77 -14 11 -38 25 -55 30 -27 8 -28 9 -10 17 58 24 72 99 29 148 -20
23 -37 30 -75 34 -27 2 -49 8 -49 13 0 5 -43 9 -95 9 -57 0 -95 -4 -95 -10z
m238 -57 c22 -24 30 -76 14 -100 -13 -20 -64 -37 -114 -38 l-48 0 0 82 c0 93
2 95 80 86 30 -4 53 -14 68 -30z m7 -188 c14 -13 25 -36 25 -50 0 -14 6 -25
13 -26 10 0 10 -2 0 -6 -7 -2 -13 -14 -13 -24 0 -29 -18 -59 -35 -59 -8 0 -15
-4 -15 -10 0 -5 -22 -10 -50 -10 -27 0 -50 5 -50 10 0 6 -7 10 -15 10 -12 0
-15 17 -15 95 l0 95 65 0 c57 0 69 -3 90 -25z"/>
<path d="M4530 460 c0 -5 11 -10 24 -10 33 0 36 -17 36 -210 0 -199 -3 -210
-41 -210 -16 0 -29 -4 -29 -10 0 -6 68 -10 184 -10 l184 0 6 31 c8 44 8 79 -2
79 -5 0 -21 -16 -36 -35 -16 -19 -34 -35 -42 -35 -8 0 -14 -4 -14 -10 0 -6
-27 -10 -60 -10 -73 0 -75 3 -75 120 l0 85 44 3 c66 5 91 -5 103 -38 20 -60
42 -22 36 65 -2 27 -8 50 -15 53 -7 2 -13 -2 -13 -10 0 -7 -9 -21 -21 -31 -17
-15 -30 -16 -77 -10 l-57 8 -3 50 c-2 28 2 67 8 88 11 36 12 37 60 37 28 0 50
-4 50 -10 0 -5 9 -10 19 -10 20 0 35 -12 61 -49 23 -33 30 -25 30 34 l0 55
-180 0 c-113 0 -180 -4 -180 -10z"/>
<path d="M5600 460 c0 -6 -40 -10 -100 -10 -60 0 -100 -4 -100 -10 0 -5 11
-10 24 -10 33 0 36 -18 36 -202 0 -99 4 -158 10 -158 6 0 10 -6 10 -12 0 -28
63 -50 155 -55 65 -3 86 -2 75 6 -8 6 -32 11 -52 11 -20 0 -43 7 -52 15 -8 8
-18 15 -23 15 -21 0 -28 56 -25 213 l2 167 25 0 c18 0 25 5 25 20 0 11 -2 20
-5 20 -3 0 -5 -4 -5 -10z"/>
<path d="M5880 460 c0 -6 -28 -10 -65 -10 -37 0 -65 -4 -65 -10 0 -5 11 -10
25 -10 19 0 28 -8 36 -27 15 -39 8 -325 -8 -330 -7 -3 -9 -12 -6 -20 5 -12 2
-15 -10 -10 -9 3 -17 2 -17 -3 0 -6 -7 -10 -15 -10 -8 0 -15 -4 -15 -10 0 -5
7 -10 15 -10 8 0 15 5 15 11 0 6 6 9 13 6 16 -5 47 31 47 55 0 10 5 18 10 18
7 0 10 53 8 161 l-3 161 28 5 c18 4 27 12 27 24 0 11 -4 19 -10 19 -5 0 -10
-4 -10 -10z"/>
</g>
</svg>
